#tb 0: 1/19200
0,     -20000,     -20000,        0,   185280, 0x061c0d85
0,     -19200,     -19200,        0,   185280, 0x427ef9a7
0,     -18400,     -18400,        0,   185280, 0x64c74d6a
0,     -17600,     -17600,        0,   185280, 0x5bfd0e5b
0,     -16800,     -16800,        0,   185280, 0x9da221c6
0,     -16000,     -16000,        0,   185280, 0x25aaa51b
0,     -15200,     -15200,        0,   185280, 0x26848298
0,     -14400,     -14400,        0,   185280, 0xd9bd03ea
0,     -13600,     -13600,        0,   185280, 0xe1a7e39f
0,     -12800,     -12800,        0,   185280, 0x92763708
0,     -12000,     -12000,        0,   185280, 0x76137106
0,     -11200,     -11200,        0,   185280, 0x32b184c9
0,     -10400,     -10400,        0,   185280, 0xe5d6ec11
0,      -9600,      -9600,        0,   185280, 0x6344ec88
0,      -8800,      -8800,        0,   185280, 0xa8875cb9
0,      -8000,      -8000,        0,   185280, 0x6cfc8687
0,      -7200,      -7200,        0,   185280, 0xcbc5bb85
0,      -6400,      -6400,        0,   185280, 0x5a0c1b38
0,      -5600,      -5600,        0,   185280, 0x887a7fb2
